<svg width="199" height="207" viewBox="0 0 199 207" fill="none" xmlns="http://www.w3.org/2000/svg">
<path d="M34.9497 206.467C21.9133 206.461 13.3711 197.331 9.91009 189.345C7.95543 185.356 0.195984 168.598 0.195984 154.047C0.195984 139.848 8.61305 126.366 21.1146 119.279V117.137C21.1146 108.846 27.9093 102.1 36.2604 102.1H45.5785C41.519 89.1262 37.0135 62.6673 56.9492 39.8773C59.8436 36.5812 64.0078 34.7016 68.3904 34.7016C68.4223 34.7016 68.4541 34.7016 68.4883 34.7016C79.7178 19.7801 102.352 0.21608 143.8 0.21608C157.105 0.21608 171.609 2.27866 186.907 6.34734C191.713 7.63278 195.575 11.1683 197.25 15.8108C198.922 20.4827 198.185 25.6493 195.281 29.6547C194.173 31.1819 193.115 32.7226 192.073 34.2385L191.859 34.548C188.223 39.8456 184.452 45.3353 179.3 50.0885C175.878 53.2468 171.193 56.7032 165.739 59.6672C165.77 63.5461 164.282 67.3414 161.465 70.2309C136.514 95.7702 114.66 108.399 97.6601 114.444C97.8194 115.318 97.9036 116.218 97.9036 117.137V119.279C110.403 126.363 118.822 139.848 118.822 154.047C118.822 168.575 111.061 185.354 109.11 189.343C105.654 197.32 97.1231 206.447 84.1141 206.467H34.9497Z" fill="#F2F2F2"/>
<path d="M133.758 51.0136C147.349 53.6667 162.119 45.0438 169.091 38.7311C174.421 33.9057 178.369 27.2652 183.161 20.776C91.7987 -3.08676 72.2923 57.171 72.2923 57.171C72.2923 57.171 69.4589 58.8624 67.9797 49.2481C46.9161 72.8818 61.9433 102.555 61.9433 102.555C61.9433 102.555 97.1674 112.826 150.596 59.1457C141.74 57.8542 138.406 55.7796 133.758 51.0136Z" fill="#FF7575" stroke="#232830" stroke-width="4" stroke-miterlimit="10" stroke-linecap="round" stroke-linejoin="round"/>
<path d="M82.4454 129.143V116.649C82.4454 116.649 82.4451 116.648 82.4448 116.648H36.0421V129.143C24.2003 131.344 15.1658 142.574 15.1658 153.834C15.1658 166.389 23.5162 183.136 23.5162 183.136C23.5162 183.136 26.6457 191.493 34.7324 191.497C48.218 191.497 70.2871 191.497 83.7728 191.497C91.8447 191.483 94.971 183.136 94.971 183.136C94.971 183.136 103.322 166.389 103.322 153.834C103.322 142.574 94.2869 131.344 82.4454 129.143Z" fill="#9AA2E6" stroke="#232830" stroke-width="4" stroke-miterlimit="10" stroke-linecap="round" stroke-linejoin="round"/>
<path d="M136.588 35.1457C83.6747 54.2509 56.7553 101.237 53.4221 151.578" stroke="#232830" stroke-width="4" stroke-miterlimit="10" stroke-linecap="round" stroke-linejoin="round"/>
<path d="M92.2587 146.588H27.8921C26.1631 149.149 25.1458 152.012 25.1458 154.72C25.1458 163.152 30.7825 175.505 32.9569 179.55L33.1621 179.932L33.3193 180.331C33.3237 180.331 34.6728 183.181 36.8777 183.181H83.2687C85.4605 183.181 86.8184 180.363 86.8271 180.331L86.9843 179.932L87.1895 179.55C89.3639 175.492 95.0051 163.1 95.0051 154.72C95.0051 152.012 93.9877 149.149 92.2587 146.588Z" fill="#707CC0"/>
</svg>
